<?xml version="1.0" encoding="UTF-8" standalone="no"?>
<svg
   xmlns:dc="http://purl.org/dc/elements/1.1/"
   xmlns:cc="http://creativecommons.org/ns#"
   xmlns:rdf="http://www.w3.org/1999/02/22-rdf-syntax-ns#"
   xmlns:svg="http://www.w3.org/2000/svg"
   xmlns="http://www.w3.org/2000/svg"
   version="1.1"
   id="svg892"
   width="197.48364"
   height="94.933075"
   viewBox="0 0 197.48365 94.933075">
  <metadata
     id="metadata898">
    <rdf:RDF>
      <cc:Work
         rdf:about="">
        <dc:format>image/svg+xml</dc:format>
        <dc:type
           rdf:resource="http://purl.org/dc/dcmitype/StillImage" />
        <dc:title></dc:title>
      </cc:Work>
    </rdf:RDF>
  </metadata>
  <defs
     id="defs896" />
  <g
     id="g900"
     transform="translate(0.84227542,0.09530404)">
    <g
       id="g904"
       transform="translate(0.37788391,1.2558958)"
       style="stroke:#ffffff;stroke-width:3;stroke-miterlimit:4;stroke-dasharray:none;stroke-opacity:1">
      <path
         style="fill:#8a0054;stroke:#ffffff;stroke-width:3;stroke-miterlimit:4;stroke-dasharray:none;stroke-opacity:1"
         d="M 3.4952127,89.586122 C 0.34037441,86.431284 -0.52705362,82.686634 1.027574,78.933431 3.4369347,73.116719 4.2926368,73 44.527263,73 h 36.626583 l 2.923077,2.923077 c 3.953922,3.953922 4.075469,9.651803 0.286713,13.440559 L 81.727273,92 H 43.818182 5.9090909 Z m 96.1793363,-0.1843 C 95.846611,85.573884 95.951325,79.894829 99.923077,75.923077 L 102.84615,73 h 29.54213 29.54213 l 3.48552,-3.060325 C 170.7364,65.268235 173.30285,57.563688 173.39044,46 173.50455,30.934142 168.92184,21.234367 160.9351,19.637019 159.18329,19.286659 145.4108,19 130.32955,19 h -27.42046 l -2.45454,-2.454545 C 96.937682,13.028591 97.000318,6.2875814 100.58111,2.924314 L 103.16222,0.5 H 134.83111 166.5 l 5.70261,2.8003643 C 186.8354,10.48604 195.99941,29.5756 194.6271,50.012822 c -1.2102,18.022878 -9.50175,32.479005 -22.41406,39.078384 -4.65474,2.378996 -5.11601,2.412359 -37.28849,2.696979 L 102.3491,92.07637 Z M 6.3881174,55.032512 C 5.226582,54.556279 3.2734363,52.891783 2.0477937,51.33363 -0.81113058,47.699097 -0.17190728,42.459585 3.522003,39.25 L 6.1115274,37 H 64.101218 122.09091 l 2.45454,2.454545 c 3.35337,3.353362 3.37225,9.366839 0.0416,13.239691 L 122.17406,55.5 65.337032,55.699195 C 34.076664,55.808752 7.5496529,55.508745 6.3881174,55.032512 Z M 3.7116375,16.987814 C 2.3046935,15.881112 0.86288504,13.652205 0.50761863,12.034687 -0.35641398,8.1007727 2.375973,2.5011211 5.8647258,1.0560324 7.764312,0.26919805 19.72823,0.01420342 45.382066,0.21377411 L 82.175005,0.5 84.587503,3.3057637 c 3.385071,3.9368795 3.288924,9.5450823 -0.223867,13.0578723 L 81.727273,19 H 43.998495 C 7.7077506,19 6.1722161,18.923305 3.7116375,16.987814 Z"
         id="path908" />
      <path
         style="fill:#0f1562;stroke:#ffffff;stroke-width:3;stroke-miterlimit:4;stroke-dasharray:none;stroke-opacity:1"
         d="M 3.4952127,89.586122 C 0.34037441,86.431284 -0.52705362,82.686634 1.027574,78.933431 3.4369347,73.116719 4.2926368,73 44.527263,73 h 36.626583 l 2.923077,2.923077 c 3.953922,3.953922 4.075469,9.651803 0.286713,13.440559 L 81.727273,92 H 43.818182 5.9090909 Z M 6.3881174,55.032512 C 5.226582,54.556279 3.2734363,52.891783 2.0477937,51.33363 -0.81113058,47.699097 -0.17190728,42.459585 3.522003,39.25 L 6.1115274,37 H 64.101218 122.09091 l 2.45454,2.454545 c 3.35337,3.353362 3.37225,9.366839 0.0416,13.239691 L 122.17406,55.5 65.337032,55.699195 C 34.076664,55.808752 7.5496529,55.508745 6.3881174,55.032512 Z M 3.7116375,16.987814 C 2.3046935,15.881112 0.86288504,13.652205 0.50761863,12.034687 -0.35641398,8.1007727 2.375973,2.5011211 5.8647258,1.0560324 7.764312,0.26919805 19.72823,0.01420342 45.382066,0.21377411 L 82.175005,0.5 84.587503,3.3057637 c 3.385071,3.9368795 3.288924,9.5450823 -0.223867,13.0578723 L 81.727273,19 H 43.998495 C 7.7077506,19 6.1722161,18.923305 3.7116375,16.987814 Z"
         id="path906" />
    </g>
  </g>
</svg>
