<?xml version="1.0" encoding="UTF-8" standalone="no"?>
<svg
   xmlns:dc="http://purl.org/dc/elements/1.1/"
   xmlns:cc="http://creativecommons.org/ns#"
   xmlns:rdf="http://www.w3.org/1999/02/22-rdf-syntax-ns#"
   xmlns:svg="http://www.w3.org/2000/svg"
   xmlns="http://www.w3.org/2000/svg"
   version="1.1"
   id="svg885"
   width="349.60153"
   height="552.1618"
   viewBox="0 0 349.60153 552.1618">
  <metadata
     id="metadata891">
    <rdf:RDF>
      <cc:Work
         rdf:about="">
        <dc:format>image/svg+xml</dc:format>
        <dc:type
           rdf:resource="http://purl.org/dc/dcmitype/StillImage" />
        <dc:title></dc:title>
      </cc:Work>
    </rdf:RDF>
  </metadata>
  <defs
     id="defs889" />
  <g
     id="g893"
     transform="translate(-3.0947309,-1.6842931)">
    <g
       id="g897"
       transform="translate(2.8366434,1.6842931)">
      <path
         style="fill:#fcfcfc"
         d="M 190.26096,358 C 190.11188,247.00002 190.37259,187.02915 191,188 c 0.82843,1.2819 0.9716,1.24555 0.98469,-0.25 0.0198,-2.26929 1.73296,-2.26929 2.32598,0 0.43555,1.66667 0.46285,1.66667 0.57333,0 0.1091,-1.64591 3.68051,-1.75 60.04268,-1.75 56.23214,0 59.95487,0.10789 60.38399,1.75 0.43555,1.66667 0.46285,1.66667 0.57333,0 0.0638,-0.9625 0.566,-1.75 1.116,-1.75 0.55,0 1.00689,0.7875 1.01531,1.75 0.0131,1.49555 0.15626,1.5319 0.98469,0.25 0.62887,-0.97311 0.88985,29.93759 0.74298,88 l -0.2264,89.5 -0.51658,-87 -0.51658,-87 -0.24171,88.19098 c -0.15658,57.13085 -0.592,88.40747 -1.2363,88.80567 -0.65585,0.40534 -1.08343,-29.63031 -1.25547,-88.19098 L 315.48905,191.5 l -0.27779,90 c -0.26652,86.3455 -0.35402,90.09136 -2.15482,92.25 -1.03236,1.2375 -2.81739,2.25 -3.96673,2.25 -1.14934,0 -2.08971,0.45 -2.08971,1 0,0.55 0.5625,1.00689 1.25,1.01531 0.77413,0.009 0.86931,0.29501 0.25,0.75 -0.55,0.40408 -1.49812,1.63469 -2.10694,2.73469 -0.60882,1.1 -2.40882,2.23131 -4,2.51401 -2.46353,0.4377 -2.89306,0.97774 -2.89306,3.6374 0,3.26817 -5.68331,12.34859 -7.7288,12.34859 -0.60749,0 -0.82175,0.28278 -0.47613,0.6284 0.34562,0.34562 -1.00168,2.6177 -2.994,5.04906 -2.64068,3.2226 -3.84572,4.0686 -4.44642,3.1216 -0.56209,-0.88612 -0.839,-0.50437 -0.87114,1.20094 -0.0679,3.60544 -2.27689,6 -5.53488,6 -2.71305,0 -2.75009,0.0625 -0.88976,1.50245 1.38377,1.07105 1.47465,1.34128 0.31652,0.94113 -1.17348,-0.40545 -1.59001,0.008 -1.5,1.48936 C 275.52604,422.41219 262.41266,440 260.4135,440 259.63608,440 259,440.69083 259,441.53518 259,443.80733 255.98395,448 254.34945,448 c -0.78129,0 -2.27391,1.99088 -3.31695,4.42417 -1.55343,3.62403 -2.27044,4.32637 -3.96446,3.88337 -1.22468,-0.32026 -2.06804,-0.0614 -2.06804,0.63485 0,0.6466 -0.45,0.89753 -1,0.55761 -1.68036,-1.03852 -1.11089,0.69843 0.65149,1.98711 1.30903,0.95719 1.38068,1.37498 0.34549,2.01476 -0.86322,0.5335 -1.06409,0.41573 -0.59247,-0.34736 0.39244,-0.63498 0.20397,-1.15451 -0.41882,-1.15451 -0.62278,0 -0.95636,0.7875 -0.74127,1.75 0.22342,0.99981 -1.37629,3.8934 -3.73171,6.75 -2.26753,2.75 -5.14116,6.4625 -6.38584,8.25 -1.30742,1.8776 -3.13056,3.25 -4.31741,3.25 -1.80378,0 -1.88695,0.20637 -0.6819,1.69196 0.77632,0.95705 0.86056,1.38496 0.19393,0.98517 -0.74013,-0.44388 -1.29809,0.12636 -1.5,1.53301 -0.17682,1.23189 -1.33132,2.74123 -2.56556,3.35409 -1.23424,0.61286 -1.91674,1.52412 -1.51667,2.02503 0.40007,0.50091 0.0824,0.34824 -0.70593,-0.33926 -2.35473,-2.05355 -3.20311,-1.44201 -2.89885,2.08956 0.22005,2.55402 -0.52432,4.37699 -3.16453,7.75 -1.89874,2.42574 -3.78695,4.86044 -4.19603,5.41044 -3.70753,4.98476 -6.17676,7.5 -7.36281,7.5 -0.82727,0 -1.41111,1.00434 -1.41111,2.42742 0,1.4143 -1.07006,3.26913 -2.56382,4.44412 -5.7862,4.55143 -5.40763,15.41872 -5.68621,-163.22739 L 194.49401,191.5 194.247,359.69098 C 194.08431,470.47195 193.65866,528.09292 193,528.5 c -0.66479,0.41086 -1.08235,-55.96855 -1.24565,-168.19098 L 191.5087,191.5 191,360.5 l -0.5087,169 z m 47.07018,54.60219 c 1.8688,-1.8688 4.88508,-5.4688 6.70286,-8 2.02527,-2.82014 4.11064,-4.63276 5.38552,-4.68114 1.14426,-0.0434 1.51798,-0.30592 0.83048,-0.58333 -0.6875,-0.27741 -1.25,-0.99189 -1.25,-1.58772 0,-0.59583 0.30749,-0.77584 0.68332,-0.40001 0.37582,0.37582 1.2541,-0.67418 1.95173,-2.33334 1.02433,-2.43618 1.86631,-3.01665 4.37569,-3.01665 1.70901,0 2.86877,-0.38593 2.57725,-0.85763 -1.18003,-1.90933 1.56824,-7.44545 7.48609,-15.08001 C 269.51129,371.62806 272.92575,368 273.66177,368 274.3978,368 275,367.18105 275,366.18011 c 0,-1.00094 1.35,-3.33199 3,-5.18011 1.65,-1.84812 3,-2.82917 3,-2.18011 0,0.64906 0.42721,1.18011 0.94936,1.18011 0.58909,0 0.97776,-25.75856 1.02418,-67.87704 l 0.0748,-67.87705 -2.27418,-0.6093 c -2.95553,-0.79185 -48.58029,-0.79524 -51.53372,-0.004 l -2.25954,0.60547 0.0291,95.88088 0.0291,95.88087 h 3.44713 c 2.58649,0 4.29544,-0.84832 6.84493,-3.39781 z m -42.06141,111.46709 c 0.08,-1.0619 0.48237,-1.72249 0.89418,-1.46798 0.41181,0.25451 0.49525,1.12334 0.18543,1.93073 -0.78123,2.03585 -1.2526,1.83381 -1.07961,-0.46275 z"
         id="path907" />
      <path
         style="fill:#fafafa"
         d="M 190.99506,360.75002 C 191.26734,267.66251 191.60454,218.95 191.74439,252.5 c 0.7749,185.90079 0.69423,277.50011 -0.24439,277.50008 -0.66468,-2e-5 -0.834,-56.75334 -0.50494,-169.25006 z m 3.2581,-1.25002 0.24083,-168 0.256,163.90114 c 0.16907,108.24636 0.59815,164.31341 1.26361,165.11525 0.69127,0.83293 0.53529,2.11978 -0.49683,4.09886 -1.34388,2.57686 -1.47874,-15.04602 -1.26361,-165.11525 z m 9.14553,153.25 c -0.39564,-0.6875 -0.3511,-0.9164 0.099,-0.50868 0.45007,0.40773 1.53472,0.18273 2.41032,-0.5 1.40859,-1.0983 1.43388,-1.03969 0.21957,0.50868 -1.63578,2.08577 -1.79908,2.11569 -2.72887,0.5 z m 15.9756,-21.21701 c -0.30962,-0.80686 -0.36997,-2.04436 -0.1341,-2.75 0.23587,-0.70564 0.66592,-0.0455 0.95566,1.46701 0.56574,2.95322 0.099,3.68204 -0.82156,1.28299 z M 221,490.09844 c 0,-1.03844 1.90221,-2.54172 2.46567,-1.94858 0.18294,0.19258 -0.297,0.93038 -1.06653,1.63957 C 221.62961,490.49861 221,490.63767 221,490.09844 Z m 22.02661,-27.78942 C 243.01197,461.65398 243.45,460.83992 244,460.5 c 0.55,-0.33992 1,-1.41648 1,-2.39235 0,-0.97587 0.675,-1.77432 1.5,-1.77432 0.825,0 1.5,0.375 1.5,0.83334 0,0.45833 -0.34577,0.83333 -0.76838,0.83333 -0.42261,0 -1.53564,1.2375 -2.47339,2.75 -0.93776,1.5125 -1.71699,2.21406 -1.73162,1.55902 z M 252.5,450 c 0.99549,-1.1 2.03498,-2 2.30998,-2 0.275,0 -0.31449,0.9 -1.30998,2 -0.99549,1.1 -2.03498,2 -2.30998,2 -0.275,0 0.31449,-0.9 1.30998,-2 z M 276,419 c -1.08997,-0.70439 -1.14217,-0.97356 -0.19098,-0.98469 0.71996,-0.008 1.07725,-0.39031 0.79399,-0.84864 -0.28327,-0.45834 0.13303,-0.83334 0.9251,-0.83334 0.98994,0 1.1352,0.36742 0.46469,1.17535 -0.5365,0.64643 -0.67935,1.47143 -0.31746,1.83333 0.96115,0.96115 0.0549,0.77613 -1.67534,-0.34201 z m -21,-27.44898 c 0,-0.38163 0.675,-1.36888 1.5,-2.19388 0.825,-0.825 1.5,-1.07295 1.5,-0.55101 0,0.52194 -0.675,1.50918 -1.5,2.19387 -0.825,0.68469 -1.5,0.93265 -1.5,0.55102 z M 299.5,388 c -0.82935,-2.61305 -0.43349,-3.07364 2.96201,-3.44637 l 2.63862,-0.28965 -2.30031,2.61801 c -1.26518,1.43991 -2.37173,2.76442 -2.45901,2.94337 C 300.25402,390.00431 299.87544,389.1829 299.5,388 Z m 2.5,-2.11803 c 0,-0.55 -0.45,-0.72189 -1,-0.38197 -0.55,0.33992 -1,1.06803 -1,1.61803 0,0.55 0.45,0.72189 1,0.38197 0.55,-0.33992 1,-1.06803 1,-1.61803 z M 307,380 c 0,-0.55 0.47656,-1 1.05902,-1 0.58246,0 0.7809,0.45 0.44098,1 -0.33992,0.55 -0.81648,1 -1.05902,1 C 307.19844,381 307,380.55 307,380 Z m 0.43731,-2.77065 c 0.34132,-0.34131 1.32379,-0.72378 2.18327,-0.84993 0.85947,-0.12614 1.28342,0.0499 0.94211,0.39123 -0.34132,0.34131 -1.32379,0.72378 -2.18327,0.84993 -0.85947,0.12614 -1.28342,-0.0499 -0.94211,-0.39123 z M 315.47899,281.5 c 6e-5,-49.5 0.12192,-69.60356 0.2708,-44.67458 0.14888,24.92898 0.14883,65.42898 -1.1e-4,90 C 315.60074,351.39644 315.47893,331 315.47899,281.5 Z m 2.99955,-2 c -6e-5,-48.4 0.12195,-68.34636 0.27113,-44.32525 0.14918,24.02111 0.14923,63.62111 1.2e-4,88 -0.14912,24.37889 -0.27118,4.72525 -0.27125,-43.67475 z m -37.01966,79.43347 c -0.36253,-0.58659 -0.44468,-1.281 -0.18255,-1.54313 0.26212,-0.26213 0.74306,0.21781 1.06875,1.06653 0.67618,1.76211 0.0999,2.07206 -0.8862,0.4766 z M 190.63837,187.5 c -0.31658,-0.825 -0.13972,-1.5 0.39301,-1.5 0.53274,0 0.96862,0.675 0.96862,1.5 0,0.825 -0.17686,1.5 -0.39301,1.5 -0.21616,0 -0.65203,-0.675 -0.96862,-1.5 z m 3.44058,-0.0833 c 0.048,-1.16495 0.28494,-1.4019 0.60416,-0.60417 0.28887,0.72187 0.25335,1.58437 -0.0789,1.91667 -0.3323,0.33229 -0.56864,-0.25834 -0.52522,-1.3125 z m 121,0 c 0.048,-1.16495 0.28494,-1.4019 0.60416,-0.60417 0.28887,0.72187 0.25335,1.58437 -0.0789,1.91667 -0.33229,0.33229 -0.56864,-0.25834 -0.52522,-1.3125 z M 318,187.5 c 0,-0.825 0.43588,-1.5 0.96862,-1.5 0.53273,0 0.70959,0.675 0.39301,1.5 -0.31659,0.825 -0.75246,1.5 -0.96862,1.5 C 318.17686,189 318,188.325 318,187.5 Z"
         id="path905" />
      <path
         style="fill:#9f852a"
         d="m 152.77577,523.75 c -3.50411,-4.5375 -32.56215,-42.12441 -64.573437,-83.52647 L 30,364.94707 V 275.47353 186 h 65 65 V 222.5 259 H 141.5 123 v -16.42857 c 0,-13.60173 -0.27039,-16.69897 -1.57143,-18 -2.3548,-2.3548 -49.502342,-2.3548 -51.857141,0 -0.864286,0.86428 -1.593053,2.32678 -1.619482,3.25 -0.02643,0.92321 -0.0662,15.15552 -0.08839,31.62736 -0.03715,27.58501 0.10012,30.05148 1.739183,31.25 C 71.000319,291.72072 80.892334,292 115.69113,292 H 160 v 18.5 18.5 h -44.42857 c -39.056278,0 -44.61859,0.19002 -46.000001,1.57143 C 68.327776,331.81508 68,334.50625 68,343.47346 v 11.3306 l 22.610536,29.34797 c 12.435794,16.14138 23.123294,29.67858 23.750004,30.08266 1.92837,1.24334 5.41638,0.84553 7.06803,-0.80612 1.20635,-1.20635 1.57143,-3.7619 1.57143,-11 L 123,393 h 18.5 18.5 v 69.5 c 0,38.225 -0.19195,69.5 -0.42656,69.5 -0.23462,0 -3.29357,-3.7125 -6.79767,-8.25 z M 62.036951,144.15252 c -3.322116,-6.51612 -7.833655,-14.6223 -10.025642,-18.01373 l -3.985432,-6.16624 4.028574,2.05523 c 2.215716,1.13037 6.8345,2.31725 10.263965,2.63749 12.052606,1.12549 21.13597,-5.39966 23.744867,-17.05744 0.71418,-3.19129 1.023685,-10.705522 0.790576,-19.193763 L 86.470775,74.464772 94.252492,84.982386 C 102.52592,96.164591 109.50743,102.33728 119,106.86286 c 11.40735,5.43845 25.9467,2.47294 34.54675,-7.04629 C 159.85856,92.830157 168.33712,72.305841 174.12591,50 l 1.16783,-4.5 1.41108,5.5 c 5.7333,22.346914 13.89062,40.997003 21.75977,49.74939 5.89759,6.55955 12.87211,9.66705 19.61529,8.73962 10.73654,-1.47665 25.40458,-10.846326 38.08767,-24.329699 L 263.5,77.364193 v 14.567903 c 0,13.377294 0.19311,14.935684 2.36285,19.067904 3.08878,5.88252 5.78359,8.75697 10.45554,11.15253 6.0103,3.08181 12.22827,3.39063 19.14695,0.95097 3.28094,-1.15693 6.06757,-2.1035 6.19252,-2.1035 0.12494,0 -1.33996,2.3625 -3.25534,5.25 -1.91538,2.8875 -6.27701,10.76056 -9.69251,17.4957 L 282.5,155.99139 175.28858,155.9957 68.07716,156 Z M 11.75,86.919901 c -2.3276256,-1.355717 -2.2262095,-4.594674 0.184259,-5.884717 2.918283,-1.561818 5.560624,-1.250814 7.490458,0.881629 3.687198,4.074308 -2.426592,8.05984 -7.674717,5.003088 z m 319.28987,-0.371862 c -2.99946,-3.61413 2.44413,-8.796095 6.45078,-6.140748 C 341.63158,83.151629 340.04116,88 335,88 c -1.51531,0 -3.29737,-0.653382 -3.96013,-1.451961 z M 70.011731,49.693558 c -7.101646,-2.429923 -7.34149,-9.404349 -0.422819,-12.295155 4.234118,-1.769127 7.823786,-0.960495 10.426904,2.348833 2.720251,3.458239 2.50713,4.887868 -1.238677,8.309135 -3.587799,3.276948 -3.837027,3.323498 -8.765408,1.637187 z M 271.18639,47.559505 c -3.06168,-3.487059 -3.13352,-3.761061 -1.70862,-6.516519 1.63831,-3.168142 7.02431,-5.52123 10.11961,-4.421156 C 282.76915,37.749081 286,41.219901 286,43.5 c 0,2.958978 -4.00994,6.465077 -8.16538,7.139411 -3.04343,0.493881 -3.83058,0.129221 -6.64823,-3.079906 z M 171.5,26.597485 c -7.11845,-3.142159 -8.70849,-8.850533 -3.82542,-13.733601 3.88716,-3.8871651 8.7944,-4.6043737 13.09581,-1.913994 6.84963,4.2842 6.79934,10.45984 -0.11818,14.513777 -4.94906,2.900344 -5.10613,2.919802 -9.15221,1.133818 z"
         id="path903" />
      <path
         style="fill:#5a5a5a"
         d="m 181.87244,550.25 c -1.1941,-1.5226 -1.17752,-1.60002 0.12756,-0.59582 0.825,0.6348 2.625,1.36102 4,1.61382 l 2.5,0.45964 -2.62756,0.13618 c -1.44834,0.0751 -3.24349,-0.6492 -4,-1.61382 z"
         id="path901" />
      <path
         style="fill:#000000"
         d="M 143.27579,527.76914 C 132.94911,514.44216 101.2125,473.40924 72.75,436.58486 L 21,369.63144 v -95.11572 c 0,-72.64556 0.283488,-95.39921 1.2,-96.31572 1.736278,-1.73628 143.86372,-1.73628 145.6,0 1.72595,1.72595 1.72595,86.87405 0,88.6 -1.70727,1.70727 -50.89273,1.70727 -52.6,0 -0.8381,-0.8381 -1.2,-6.26667 -1.2,-18 V 232 H 95.5 77 v 25.5 25.5 h 44.8 c 33.51111,0 45.10238,0.30238 46,1.2 1.70727,1.70727 1.70727,50.89273 0,52.6 -0.89762,0.89762 -12.48889,1.2 -46,1.2 H 77 v 6.07293 6.07293 l 18.25,23.66199 18.25,23.662 0.30988,-5.45461 c 0.17043,-3.00004 0.78803,-6.03075 1.37244,-6.73493 1.47965,-1.78286 50.83979,-1.8582 52.61768,-0.0803 1.73819,1.73819 1.73819,163.86181 0,165.6 -3.48222,3.48222 -5.31014,1.76561 -24.52421,-23.03086 z M 160,462.5 V 393 H 141.5 123 v 9.42857 c 0,7.2381 -0.36508,9.79365 -1.57143,11 -1.65165,1.65165 -5.13966,2.04946 -7.06803,0.80612 -0.62671,-0.40408 -11.31421,-13.94128 -23.750004,-30.08266 L 68,354.80406 v -11.3306 c 0,-8.96721 0.327776,-11.65838 1.571429,-12.90203 C 70.95284,329.19002 76.515152,329 115.57143,329 H 160 V 310.5 292 h -44.30887 c -34.798796,0 -44.690811,-0.27928 -46.088386,-1.30121 -1.639063,-1.19852 -1.776332,-3.66499 -1.739183,-31.25 0.02218,-16.47184 0.06196,-30.70415 0.08839,-31.62736 0.02643,-0.92322 0.755196,-2.38572 1.619482,-3.25 2.354799,-2.3548 49.502337,-2.3548 51.857137,0 1.30104,1.30103 1.57143,4.39827 1.57143,18 L 123,259 H 141.5 160 V 222.5 186 H 95 30 v 89.47353 89.47354 l 58.202333,75.27646 c 32.011287,41.40206 61.069327,78.98897 64.573437,83.52647 3.5041,4.5375 6.56305,8.25 6.79767,8.25 C 159.80805,532 160,500.725 160,462.5 Z m 22.2,87.3 c -1.74582,-1.74582 -1.74582,-369.85418 0,-371.6 1.73628,-1.73628 143.86372,-1.73628 145.6,0 0.91668,0.91668 1.19695,23.64102 1.18708,96.25 l -0.0129,95.05 -42.58823,55 C 262.96239,454.75 231.38664,495.5875 216.2176,515.25 192.39626,546.12782 188.28062,551 186.01876,551 184.57844,551 182.86,550.46 182.2,549.8 Z M 256.38205,447.19029 320,364.88059 V 275.44029 186 h -65 -65 v 173.21429 c 0,147.43794 0.20567,172.99638 1.38205,171.75 0.76013,-0.80536 30.01013,-38.50366 65,-83.774 z M 228.57143,413.42857 C 227.16542,412.02256 227,402.08225 227,319 c 0,-83.08225 0.16542,-93.02256 1.57143,-94.42857 2.35598,-2.35598 50.50116,-2.35598 52.85714,0 1.39568,1.39568 1.57143,8.69622 1.57143,65.27749 0,58.2642 -0.14489,63.91727 -1.6962,66.17857 -4.14574,6.04316 -42.75997,55.65068 -44.54169,57.22251 -2.46355,2.17335 -6.11627,2.25298 -8.19068,0.17857 z M 255.39044,373.5 l 18.59661,-24 0.006,-58.75 L 274,232 h -19 -19 v 83.16667 c 0,45.74166 0.17861,82.97916 0.39691,82.75 C 236.61521,397.6875 245.1623,386.7 255.39044,373.5 Z M 61.253872,163.75 C 60.708813,163.0625 57.45623,156.96444 54.025911,150.19875 46.938935,136.22096 38.613547,123.15591 29.366065,111.5 18.72565,98.08838 18.96993,98.30355 13.756382,97.750402 4.1665647,96.73294 -1.7130804,88.661119 0.86578051,80.053648 2.2153888,75.549057 5.5900269,72.502721 11.038938,70.870188 16.422604,69.257202 21.483271,70.538372 26.059665,74.672869 29.788331,78.041495 30,78.545614 30,84.057345 c 0,3.203542 -0.492096,6.128753 -1.093546,6.50047 -1.326887,0.820061 5.289977,7.842831 13.093546,13.896755 6.325624,4.90736 14.93772,9.49621 19.977742,10.64491 5.211691,1.18782 11.147494,-1.75524 13.542365,-6.71452 2.683902,-5.5578 3.162595,-20.350199 1.031974,-31.889767 C 73.586468,60.433253 73.510458,60.262037 69.007706,59.501302 60.492017,58.062585 55.004478,51.557451 55.001554,42.897883 54.999542,36.938688 58.104997,32.212889 63.969961,29.25 c 8.118474,-4.101327 17.579813,-2.633125 23.483751,3.644187 2.505712,2.664178 3.016345,4.124155 3.366664,9.625815 0.372428,5.84887 0.146522,6.834615 -2.30199,10.04478 l -2.714944,3.559475 3.482909,4.975297 c 17.819719,25.455267 25.130459,33.251865 35.076419,37.407555 7.38865,3.087171 16.79991,0.653571 22.17472,-5.734031 5.45823,-6.486735 11.83678,-22.148307 17.52897,-43.039756 C 167.16377,38.365562 167.61341,35 166.0348,35 c -1.85875,0 -8.34534,-6.498988 -9.68376,-9.702258 -2.89359,-6.925336 -1.10105,-14.420817 4.77972,-19.9864081 C 165.44082,1.2322737 168.79895,0 175.60494,0 c 9.25065,0 17.0703,5.5688466 19.35105,13.781055 2.58562,9.309917 -0.69509,15.397129 -11.7536,21.808297 -0.51714,0.299809 4.62358,19.697754 7.77969,29.355815 5.84903,17.89873 15.5366,32.89199 22.35878,34.604249 8.55616,2.147464 28.14691,-11.126356 41.82494,-28.338709 3.24905,-4.088594 6.82444,-9.231412 7.9453,-11.428486 2.02134,-3.962152 2.02206,-4.012133 0.0884,-6.138449 -4.72409,-5.194709 -5.48322,-11.207108 -2.22212,-17.599395 2.61989,-5.1354 6.85962,-8.000864 12.89581,-8.715761 7.55652,-0.894959 11.78341,0.313644 16.58907,4.743346 3.58759,3.306925 4.38932,4.751392 4.93961,8.899655 1.16703,8.797557 -4.10838,16.254103 -13.10569,18.524266 -4.62163,1.166111 -4.84063,1.38659 -6.01817,6.058987 -2.62123,10.400857 -4.51736,24.874368 -4.03915,30.831757 0.89424,11.140443 6.78206,18.601013 14.68657,18.609633 5.24043,0.006 16.72121,-6.25149 25.07459,-13.66604 9.41833,-8.359819 10.40782,-9.699677 9.0445,-12.247062 -1.72594,-3.224949 -1.18817,-8.572333 1.22543,-12.185275 4.37498,-6.548942 13.97916,-8.872615 20.42574,-4.941886 11.89304,7.25165 8.25154,24.078568 -5.56495,25.714927 -4.76727,0.564613 -5.5587,1.059351 -9.9521,6.221236 -11.66069,13.70037 -22.53146,30.048 -30.3281,45.60784 -3.30709,6.6 -6.7211,12.7875 -7.58669,13.75 -1.48118,1.64701 -8.20776,1.75 -114.29637,1.75 -88.982848,0 -112.931282,-0.26325 -113.713588,-1.25 z M 288.71001,143.7457 c 3.4155,-6.73514 7.77713,-14.6082 9.69251,-17.4957 1.91538,-2.8875 3.38028,-5.25 3.25534,-5.25 -0.12495,0 -2.91158,0.94657 -6.19252,2.1035 -6.91868,2.43966 -13.13665,2.13084 -19.14695,-0.95097 C 271.64644,119.75697 268.95163,116.88252 265.86285,111 263.69311,106.86778 263.5,105.30939 263.5,91.932096 V 77.364193 l -7.33245,7.795118 C 243.48446,98.642684 228.81642,108.01236 218.07988,109.48901 201.5433,111.76337 187.03084,91.248139 176.70482,51 l -1.41108,-5.5 -1.16783,4.5 C 168.33712,72.305841 159.85856,92.830157 153.54675,99.81657 144.9467,109.3358 130.40735,112.30131 119,106.86286 109.50743,102.33728 102.52592,96.164591 94.252492,84.982386 l -7.781717,-10.517614 0.383084,13.949295 c 0.233109,8.488241 -0.0764,16.002473 -0.790576,19.193763 -2.608897,11.65778 -11.692261,18.18293 -23.744867,17.05744 -3.429465,-0.32024 -8.048249,-1.50712 -10.263965,-2.63749 l -4.028574,-2.05523 3.985432,6.16624 c 2.191987,3.39143 6.703526,11.49761 10.025642,18.01373 L 68.07716,156 175.28858,155.9957 282.5,155.99139 Z M 20.04452,85.916813 c 0.889426,-1.661906 0.764083,-2.470823 -0.619803,-4 C 16.511363,78.697593 10,80.126806 10,83.985494 c 0,4.049393 8.079552,5.602896 10.04452,1.931319 z m 318.91561,0.631226 c 2.96072,-3.567446 -1.64592,-8.386223 -5.96063,-6.235111 C 328.29571,82.658023 329.68592,88 335,88 c 1.51531,0 3.29737,-0.653382 3.96013,-1.451961 z M 78.777139,48.056371 c 3.745807,-3.421267 3.958928,-4.850896 1.238677,-8.309135 -2.603118,-3.309328 -6.192786,-4.11796 -10.426904,-2.348833 -6.918671,2.890806 -6.678827,9.865232 0.422819,12.295155 4.928381,1.686311 5.177609,1.639761 8.765408,-1.637187 z M 283.6434,47.865287 C 284.93953,46.647634 286,44.683255 286,43.5 c 0,-2.280099 -3.23085,-5.750919 -6.40262,-6.87817 -3.0953,-1.100074 -8.4813,1.253014 -10.11961,4.421156 -1.4249,2.755458 -1.35306,3.02946 1.70862,6.516519 2.81765,3.209127 3.6048,3.573787 6.64823,3.079906 1.8987,-0.308115 4.51264,-1.556471 5.80878,-2.774124 z M 180.65221,25.463667 c 6.91752,-4.053937 6.96781,-10.229577 0.11818,-14.513777 -4.30141,-2.6903797 -9.20865,-1.9731711 -13.09581,1.913994 -4.88307,4.883068 -3.29303,10.591442 3.82542,13.733601 4.04608,1.785984 4.20315,1.766526 9.15221,-1.133818 z"
         id="path899" />
    </g>
  </g>
</svg>
